<?xml version="1.0" encoding="UTF-8" standalone="no"?><!DOCTYPE svg PUBLIC "-//W3C//DTD SVG 1.1//EN" "http://www.w3.org/Graphics/SVG/1.1/DTD/svg11.dtd"><svg width="100%" height="100%" viewBox="0 0 547 400" version="1.1" xmlns="http://www.w3.org/2000/svg" xmlns:xlink="http://www.w3.org/1999/xlink" xml:space="preserve" xmlns:serif="http://www.serif.com/" style="fill-rule:evenodd;clip-rule:evenodd;stroke-linejoin:round;stroke-miterlimit:2;"><g><path d="M311.121,6.011l-118.473,264.747l8.767,23.043c6.011,15.028 12.857,25.631 20.538,31.809c7.681,6.179 19.454,9.268 35.317,9.268c8.349,0 16.865,-1.086 25.547,-3.256l0,63.118c-13.191,2.839 -27.05,4.258 -41.577,4.258c-19.203,0 -35.609,-2.922 -49.218,-8.766c-13.609,-5.845 -25.214,-14.903 -34.815,-27.176c-9.601,-12.273 -18.66,-30.265 -27.176,-53.977l-70.382,-193.362c-6.178,-17.366 -12.44,-30.14 -18.785,-38.322c-6.345,-8.182 -14.11,-12.273 -23.294,-12.273c-5.51,0 -11.271,0.835 -17.282,2.505l0,-59.111c3.84,-2.004 10.52,-3.757 20.037,-5.26c9.518,-1.503 17.533,-2.254 24.046,-2.254c18.367,0 33.395,4.508 45.084,13.525c11.689,9.017 20.956,23.461 27.802,43.332c19.036,53.934 30.349,86.453 33.939,97.557c3.59,11.105 6.47,20.998 8.641,29.681l1.503,0c7.681,-25.715 14.026,-44.917 19.035,-57.608l51.597,-121.478l31.238,-5.009l47.911,5.009Z" style="fill-rule:nonzero;"/><path d="M545.712,6.011l-118.472,264.747l8.766,23.043c6.012,15.028 12.858,25.631 20.539,31.809c7.681,6.179 19.453,9.268 35.316,9.268c8.349,0 16.865,-1.086 25.548,-3.256l0,63.118c-13.191,2.839 -27.051,4.258 -41.578,4.258c-19.203,0 -35.608,-2.922 -49.217,-8.766c-13.609,-5.845 -25.214,-14.903 -34.815,-27.176c-9.602,-12.273 -18.66,-30.265 -27.176,-53.977l-70.382,-193.362c-6.179,-17.366 -12.44,-30.14 -18.785,-38.322c-6.346,-8.182 -14.11,-12.273 -23.294,-12.273c-5.51,0 -11.271,0.835 -17.283,2.505l0,-59.111c3.841,-2.004 10.52,-3.757 20.038,-5.26c9.518,-1.503 17.533,-2.254 24.045,-2.254c18.368,0 33.396,4.508 45.085,13.525c11.688,9.017 20.956,23.461 27.802,43.332c19.035,53.934 30.348,86.453 33.938,97.557c3.59,11.105 6.471,20.998 8.642,29.681l1.502,0c7.681,-25.715 14.027,-44.917 19.036,-57.608l51.597,-121.478l79.148,0Z" style="fill-rule:nonzero;"/></g></svg>